<?xml version="1.0" encoding="UTF-8"?>
<!DOCTYPE svg PUBLIC "-//W3C//DTD SVG 1.1//EN" "http://www.w3.org/Graphics/SVG/1.1/DTD/svg11.dtd">
<!-- Creator: CorelDRAW 2021 (64-Bit) -->
<svg xmlns="http://www.w3.org/2000/svg" xml:space="preserve" width="7.87402in" height="7.87402in" version="1.1" style="shape-rendering:geometricPrecision; text-rendering:geometricPrecision; image-rendering:optimizeQuality; fill-rule:evenodd; clip-rule:evenodd"
viewBox="0 0 7874.02 7874.02"
 xmlns:xlink="http://www.w3.org/1999/xlink"
 xmlns:xodm="http://www.corel.com/coreldraw/odm/2003">
 <defs>
  <style type="text/css">
   <![CDATA[
    .fil15 {fill:url(#id0)}
    .fil3 {fill:url(#id1)}
    .fil5 {fill:url(#id2)}
    .fil20 {fill:url(#id3)}
    .fil1 {fill:url(#id4)}
    .fil4 {fill:url(#id5)}
    .fil18 {fill:url(#id6)}
    .fil21 {fill:url(#id7)}
    .fil8 {fill:url(#id8)}
    .fil22 {fill:url(#id9)}
    .fil2 {fill:url(#id10)}
    .fil0 {fill:url(#id11)}
    .fil9 {fill:url(#id12)}
    .fil11 {fill:url(#id13)}
    .fil17 {fill:url(#id14)}
    .fil7 {fill:url(#id15)}
    .fil19 {fill:url(#id16)}
    .fil14 {fill:url(#id17)}
    .fil10 {fill:url(#id18)}
    .fil12 {fill:url(#id19)}
    .fil13 {fill:url(#id20)}
    .fil16 {fill:url(#id21)}
    .fil6 {fill:url(#id22)}
   ]]>
  </style>
  <linearGradient id="id0" gradientUnits="userSpaceOnUse" x1="5492.65" y1="5889.73" x2="3763.1" y2="4588.68">
   <stop offset="0" style="stop-opacity:1; stop-color:#066306"/>
   <stop offset="1" style="stop-opacity:1; stop-color:#5CA74E"/>
  </linearGradient>
  <linearGradient id="id1" gradientUnits="userSpaceOnUse" xlink:href="#id0" x1="5489.17" y1="6020.52" x2="3766.02" y2="4580.37">
  </linearGradient>
  <linearGradient id="id2" gradientUnits="userSpaceOnUse" xlink:href="#id0" x1="5492.43" y1="5623.57" x2="3763.08" y2="4524.33">
  </linearGradient>
  <linearGradient id="id3" gradientUnits="userSpaceOnUse" xlink:href="#id0" x1="5492.43" y1="5957.92" x2="3763.06" y2="4790.96">
  </linearGradient>
  <linearGradient id="id4" gradientUnits="userSpaceOnUse" xlink:href="#id0" x1="5490.33" y1="6038.99" x2="3764.34" y2="4593.58">
  </linearGradient>
  <linearGradient id="id5" gradientUnits="userSpaceOnUse" xlink:href="#id0" x1="5492.44" y1="5865.31" x2="3763.07" y2="4531.02">
  </linearGradient>
  <linearGradient id="id6" gradientUnits="userSpaceOnUse" xlink:href="#id0" x1="5416.03" y1="5504.59" x2="3770.39" y2="4412.93">
  </linearGradient>
  <linearGradient id="id7" gradientUnits="userSpaceOnUse" xlink:href="#id0" x1="5363.64" y1="6033.43" x2="4255.5" y2="4581.19">
  </linearGradient>
  <linearGradient id="id8" gradientUnits="userSpaceOnUse" xlink:href="#id0" x1="5492.46" y1="6021.1" x2="3763.06" y2="4576.63">
  </linearGradient>
  <linearGradient id="id9" gradientUnits="userSpaceOnUse" xlink:href="#id0" x1="1710.31" y1="2944.3" x2="4028.43" y2="4198.41">
  </linearGradient>
  <linearGradient id="id10" gradientUnits="userSpaceOnUse" xlink:href="#id0" x1="5474.7" y1="6006.48" x2="3775.2" y2="4575.16">
  </linearGradient>
  <linearGradient id="id11" gradientUnits="userSpaceOnUse" xlink:href="#id0" x1="5489.33" y1="6033.43" x2="3775.94" y2="4581.19">
  </linearGradient>
  <linearGradient id="id12" gradientUnits="userSpaceOnUse" xlink:href="#id0" x1="5492.44" y1="5883.91" x2="3763.07" y2="4527.01">
  </linearGradient>
  <linearGradient id="id13" gradientUnits="userSpaceOnUse" xlink:href="#id0" x1="5492.46" y1="6033.48" x2="3763.04" y2="4581.17">
  </linearGradient>
  <linearGradient id="id14" gradientUnits="userSpaceOnUse" xlink:href="#id0" x1="4809.67" y1="5384.71" x2="3635.06" y2="4583.39">
  </linearGradient>
  <linearGradient id="id15" gradientUnits="userSpaceOnUse" xlink:href="#id0" x1="5492.42" y1="5954.09" x2="3763.05" y2="4843.46">
  </linearGradient>
  <linearGradient id="id16" gradientUnits="userSpaceOnUse" xlink:href="#id0" x1="5447.85" y1="5788.16" x2="3802.04" y2="4532.83">
  </linearGradient>
  <linearGradient id="id17" gradientUnits="userSpaceOnUse" xlink:href="#id0" x1="5385.7" y1="6033.45" x2="4034.13" y2="4581.18">
  </linearGradient>
  <linearGradient id="id18" gradientUnits="userSpaceOnUse" xlink:href="#id0" x1="5250.84" y1="5501.17" x2="4384.17" y2="4700.58">
  </linearGradient>
  <linearGradient id="id19" gradientUnits="userSpaceOnUse" xlink:href="#id0" x1="5498.49" y1="5899.83" x2="3834.96" y2="4639.97">
  </linearGradient>
  <linearGradient id="id20" gradientUnits="userSpaceOnUse" xlink:href="#id0" x1="4930.98" y1="5904.82" x2="3597.14" y2="5073.06">
  </linearGradient>
  <linearGradient id="id21" gradientUnits="userSpaceOnUse" xlink:href="#id0" x1="5490.53" y1="5981.12" x2="3762.7" y2="4584.78">
  </linearGradient>
  <linearGradient id="id22" gradientUnits="userSpaceOnUse" xlink:href="#id0" x1="5492.44" y1="5992.5" x2="3763.06" y2="4708.22">
  </linearGradient>
 </defs>
 <g id="Layer_x0020_1">
  <metadata id="CorelCorpID_0Corel-Layer"/>
  <g id="_2397937954688">
   <path class="fil0" d="M4844.41 4119.07c0.76,-0.56 2.33,0.69 2.33,1.63 0,0.38 1,0.69 0.96,0.67 -0.19,-0.14 -15.96,6.94 -3.29,-2.3zm461.61 -32.92c10.94,3.19 17.81,4.16 25.67,8.33 22.06,11.71 12.91,-2.59 13.93,16.67l-39.6 -25zm-408.78 9.15l18.79 -16.78c-4.84,25.14 0.26,11.56 -18.79,16.78zm586.51 -102.28c6.35,5.6 0,0 0,0zm-65.36 -17.66c29.23,6.19 14.99,0.59 16.26,14.43 -0.59,-0.43 -7.21,-5.2 -7.81,-5.74 -6.9,-6.27 -5.91,-5.83 -8.44,-8.69zm65.36 17.66l-88.13 -41.38 22.77 23.72c-25.54,36.24 -10.35,4.58 -45.08,2.51 -7.55,20.26 -3.47,28.67 6.26,48.28 -66.24,-14.96 -16.34,-39.75 -79.75,-51.13 16.75,28.7 42.12,33.68 63.91,64.11 -11.37,3.84 -17.05,-2.98 -27.72,5.04 4.19,34.72 11.87,22.51 28.46,46.46 -27.86,-5.42 -35.72,-14.91 -58.01,-23.95 -10.71,25.27 8.8,-22.27 -2.47,8.65 -2.92,8.03 -0.43,3.39 -3.8,8.8 -27.4,-29.51 -69.11,-43.36 -95.67,-74.91 44.8,9.79 57.71,43.68 113.02,28.81 -10.22,-54.35 -112.56,-77.12 -162.55,-93.68 -10.23,-3.4 -18.76,-9.98 -28.33,-13.59 -12.55,-4.74 -25.46,-5.45 -38.86,-9.75 -11.09,-20.85 20.45,12.94 -0.07,-10.68 -10.19,-11.73 -19.79,-8.35 -29.47,-10.35l-15.7 -2.57c-4.88,0.81 -11.67,8.67 -14.2,12.79l-15.78 -22.72c-2.46,2.16 -3.08,2.95 -3.41,5.04 -3.09,19.57 -35.68,32.31 -51.36,26.14 -0.66,0.81 -1.16,1.5 -1.3,2.85l-10.52 20.04c-0.48,-0.87 -0.5,-3.59 -0.62,-2.91l-1.92 -5.78c-6.34,-11.67 13.73,2.65 -8.54,-10.76 4.7,24.37 7.11,7.6 -19.93,18.35l7.41 5.49c0.93,0.9 5.54,4.91 6.62,6.3 5.98,7.59 5.36,-11.08 8.65,20.6 1.37,13.28 -21.07,66.22 -29.09,81.32 -14.94,28.12 -13.66,0.57 -9.85,36.82 -58.63,-10.28 -41.2,21.06 -41.36,22.52 -32.05,8.36 -37.54,7.11 -39.15,37.99l36.63 4.87c-1.17,0.34 -3.35,1.02 -4.78,1.43 -1.46,0.41 -3.32,0.74 -4.93,1.2 -1.61,0.46 -3.31,0.64 -4.95,1.13 -1.61,0.48 -3.28,0.8 -4.81,1.3 -18.85,6.11 0.61,-6.63 -13.12,5.57 29.12,25.04 13.45,7.67 24.85,38.88l5.07 17.38c0.05,5.18 -6.59,-0.52 -0.72,10.72 34.94,42.2 79.78,-10.01 94.55,-9.74 29.96,4.16 27.27,24.85 47.4,50.13 19.71,24.74 38.4,17.91 34.23,64.04l-15.48 -21.93c-15.74,10.07 -26.95,6.27 -22.55,25.42 4.39,19.05 17.07,11.93 39.13,11.11 7.59,-15.71 2.02,-8.45 26.53,-17.35 20.62,-7.48 20.66,-13.3 38.87,-20.27 -2.14,-26.2 -5.44,-39.15 -2.74,-61.43 1.7,-14.11 0.29,-8.37 6.94,-20.68 6.69,-12.36 8.64,-13.93 13.52,-28.47 -13.88,-9.12 -56.66,-46.56 -60.47,-69.8 -5.87,-35.89 11.91,-17.2 27.12,-37.45 12.67,-16.86 2.85,-40.12 0.49,-65.62 107.58,8.72 27.87,48.65 35.69,90.08 1.06,5.57 35.3,60.37 39.41,64.98 52.01,58.31 79.98,-22.27 144.65,30.4 -35.06,24.18 -75.91,1.92 -84.43,20.56 -0.45,1 -2.39,5.98 -3.08,7.17 -6.76,11.71 -0.34,3.19 -8.42,9.2 -10.37,7.73 -13.76,-7.42 -7.87,19.97 17.27,-8.69 17.06,-25.07 39.52,-11.22 17.43,10.76 14.14,27.49 4.06,42.95 -6,-4.84 -33.4,-22.25 -46.19,-21.64 -5.81,33.69 11.76,46.53 17.02,74.22 -48.56,32.77 -30.19,9.08 -63.2,5.44 -20.81,-2.3 -43.96,20.64 -69.18,18.63 -14.94,-1.19 -20.5,-7.5 -31.66,-8.57 -18.61,-1.76 -19.24,5.61 -39.94,4.28 -25.82,-1.66 -43.04,-26.61 -53.46,-40.33 4.62,-12.78 13.12,-27.56 26.99,-31 -20.97,-17.02 -5.38,-15.84 -21.07,-39.21 -14.03,3.3 -23.5,5.98 -30.22,17.48l-1.52 10.37c-8.75,69.74 4.87,21.19 25.46,82.69 -117.71,33.11 -91.69,15.42 -106.64,50.96 -10.12,24.08 -32.93,28.66 -59.56,29.71l-6.68 31.45c-45.98,11.36 -29.8,24.16 -74.96,12.12 -6.35,12.27 2.14,7.58 -11.08,24.52l-67.2 -2.18c1.31,45.42 30.01,39.04 70.33,68.93 33.39,24.74 23.85,78.27 7.94,93.84 -10.43,7.58 7.3,5.67 -20.62,5.48 -56.56,-0.41 -134.04,-32.7 -181.02,2.1 11.64,40.68 15.83,66.53 -3.59,105.75 -17.33,35.01 -3.36,28 3.33,56.18 2.39,10.06 0.98,18.07 3.91,31.13 20.26,2.18 41.76,-0.59 54.54,10.46 26.54,22.96 -6.17,36.76 102.93,16.13 27.54,-5.21 59.51,-38.87 73.35,-61.22 21.82,-35.24 -8.21,-19.81 11.93,-45.53 11.03,-14.07 70.51,-48.11 87.47,-53.49 -6.98,-30.96 -11.17,-28.52 1.83,-54.03 69.57,-18.12 49.01,26.02 121.24,-15.69 52.44,-30.27 85.33,23.28 104.6,45.65 63.11,73.26 43.45,30.91 94.96,68.56 62.85,45.94 38.14,72.31 37.1,103.17 39.77,-59.18 12.93,-20.99 18.09,-84.99 23.01,0.83 13.26,5.13 32.89,15.16 3.38,-31.63 -21.86,-35.79 -89,-78.49 -37.11,-23.61 -61.34,-53.11 -85.7,-87.55 6.64,-13.96 11.24,-19.77 25.49,-26.3 13.83,17.38 1.69,12.9 16.99,28.83 9.81,-14.56 6.05,-8.72 21.43,-14.07 49.89,99.73 120.2,71.2 134.67,133.9 5.66,24.48 -0.2,28.24 14.11,48.54 27.37,38.8 52.15,84.96 86.86,115.58l20.33 -30.14c3.85,-7.61 2.41,-4.17 7.75,-13.97 -19.95,-14.19 -33.96,-50.3 -45.26,-75.29 16.98,-6.22 6.65,5.28 19.98,-0.04 10.29,-4.1 13.44,-15.8 32.67,-15.8 43.76,0 44.26,29.32 38.03,65.2 14.04,6.78 2.13,0.17 7.57,-1.07 8.15,-1.85 -4.05,-6.43 10.34,-2.18 -1.62,22.87 -17.35,49.03 46.04,90.59 7.08,4.64 7.81,5.64 10.04,7.27 11.96,8.79 -2.07,1.91 10.35,7.88 29.04,13.94 29.21,-3.11 44.2,-12.11l46.45 27.34c23.8,9.51 25.68,-10.72 58.82,-11.31 6.6,13.53 12.68,80.33 6.4,104.26 -4.67,17.89 -12.66,33.67 -22.74,46.56 -5.65,7.21 -9.38,11.31 -17.09,17.76l-21.23 15.63 2.55 39.53c-15.31,-19.06 -18.28,-58.96 -45.81,-69.25 -27.2,-10.18 -105.91,-9.63 -136.5,-29.69 -18.58,-12.19 -19.21,-9.85 -40.19,-18.43 -42.29,-17.29 -45.26,-32.94 -91.43,-9.32l-4.29 64.21c-29.96,-0.37 -90.71,-62.76 -206.05,-100.78 -40.4,-13.33 -49.13,-11.07 -64.81,-40.15 6.02,-18.26 13.4,-4.79 18.03,-33.17 2.92,-17.89 -0.5,-37.73 3.02,-60.81 -86.95,-4.8 -237.68,-13.35 -308.29,15.2 -42.01,16.99 -19.31,30.52 -75.13,23.15 -34.81,-4.59 -64.73,-5.99 -95.97,-18.52 -18.32,72.32 -90.13,76.98 -101.77,109.42 -29.07,80.98 38.2,37.61 -80,135.29 -51.38,42.46 -63.3,34.95 -100.22,109.65 -20.56,41.61 -72.22,85.63 -44.53,121.46 11.58,14.98 13.67,-4.49 13.67,44.58 0,51.67 -8.46,71.81 -28.26,111.5 -15.58,31.27 -0.66,7.97 3.36,49.98 3.8,39.65 9.07,47.49 41.24,64.7 0.43,0.23 11.28,6.15 11.34,6.19l43.46 43.81c26.08,26.94 -0.22,48.71 55.58,90.2 16.82,12.5 61.74,50.93 86.59,54.52 45.26,6.52 77.95,-26.35 127.97,-16.33 24.7,4.94 26.26,15.71 52.66,14.24 42.91,-2.39 143.09,-44.79 176.31,-26.99 20.47,10.98 20.07,30.61 30.64,51.86 52.3,9.41 63.49,-33.23 100.6,13.19 28.84,36.07 -45.62,127.08 -34.66,159.68 10.99,32.69 43.62,22.93 56.53,107.55 4.09,26.83 11.83,37.64 6.73,68.54 -5.74,34.75 -1.4,46.74 -4.35,77.44 -14.24,17.51 -30.51,24.85 -43.04,43.44 -14.27,21.17 -16.33,34.56 -32.04,55.33 -29.96,39.62 -6.58,84.6 -1.77,138.89 4.39,49.43 -25.45,89.95 -28.12,142.45 -1.34,26.49 3.96,58.13 -6.21,81.07 -8.47,19.11 -29.38,29.85 -18.46,56.32 1.32,1.04 3.61,0.49 4.43,2.39l19.18 4.45c6.72,-0.01 20.95,-3.66 30.93,-4.44 69.93,-5.46 84.7,-15.77 148.07,-52.19 88.01,-50.59 70.65,-87.43 155,-114.27 23.68,-7.54 46.71,-40.47 59.23,-68.74 33.52,-75.67 29.89,-49.8 156.39,-112.33 33.33,-16.48 40.96,-43.12 59.71,-74.62 49.29,-82.87 10.05,-30.45 49.36,-130.91 10.61,-27.13 2.73,-29.22 11.49,-45.77 40.73,-76.93 153.27,-120.16 218.52,-178.76 17.61,-15.81 50.68,-46.35 66.01,-68.18 41.91,-59.71 65.53,-97.3 94.66,-166.44 -23.32,1.99 -35.02,8.93 -67.86,7.78l-55.67 2.04c-20.45,-2.98 -7.69,-57.91 -20.77,-82.17 -48.48,-89.99 -58.3,-117.56 -77.87,-229.89 -32.29,-185.54 -31.64,-114.86 -62.41,-243.94 -6.2,-26.04 -19.36,-28.55 -23.27,-52.22 -4.82,-29.08 -5.83,-4.99 4.21,-24.96l30.79 64.93c4.72,-9.11 -0.36,2 3.83,-11.13l6.38 -17.65 17.7 25.13c3.87,8.02 8.3,20.24 11.63,28.96 7.54,19.75 17.12,43.08 22.49,64.67 12.26,49.29 23.13,81.25 38.74,129.07 20.54,62.94 59.58,135.96 52.36,203.75 -2.49,23.43 -12.36,56.67 1.12,72.24 12.81,12.77 37.86,-3.22 86.48,-14.8 51.96,-12.37 51.06,-27.8 85.65,-49.02 7.5,-4.61 19.44,-6.45 28.74,-12.26 17.13,-10.71 47.51,-35.42 55.31,-55.5 19.62,-50.48 45.73,-56.78 33.41,-110.2l-17.57 -29.07c-5.46,-5.56 -2.29,0.78 -8.41,-9.25 -10.38,-17 -9.48,-40.04 -9.87,-59.89 -1.17,1.22 -2.81,1.47 -3.35,3.82l-28.04 39.57 -40.62 -6.08 -2.42 -52.07c-11.65,-8.86 -0.61,6.39 -16.07,0l-26.78 -83.34c-15.83,-33.18 -13.21,-64.97 17.9,-78.72 35.11,82.94 42.59,135.83 102.32,136.13 0.93,0 2.98,-0.3 4.42,0 14.75,45.63 15.26,46.41 53.93,73.95 21.09,15.01 8.48,6.44 32.76,14.4 55.18,18.1 19.66,78.79 67.31,107.22 -2.7,8.5 -21.17,89.07 8.99,61.28l6.55 -7.63c-9.91,140.18 -55.61,277.32 -65.74,411.27l110.98 -243.31c19.82,-51.36 31.08,-79.9 35.66,-138.97 21.87,-282 17.99,-480.57 -82.65,-764.83 -67.54,-190.75 -166.29,-372.44 -292.46,-527.08 -22.94,-28.12 -50.54,-66.2 -73.52,-89.89 -41.74,-43.01 -78.15,-82.99 -124.54,-120.72 -17.81,-14.49 -28.13,-27.18 -45.5,-41.92 -14.6,-12.39 -28.29,-26.49 -43.89,-37.85 -78.11,-56.85 -159.71,-116.35 -245.19,-164.29 -50.77,-28.48 -72.25,-35.29 -122.35,-51.39 6.03,7.04 3.96,5 10.02,10.48 46.42,41.93 122.84,76.37 175.38,112.67z"/>
   <path class="fil1" d="M4055.83 6766.37l14.87 31.03 -14.87 -31.03zm-831.04 -605.15l-22.92 2.69 22.92 -2.69zm-9.56 -1494.74l6.29 6.85c-1.04,-1.14 -3.53,-4.1 -3.69,-2.83 -0.16,1.31 -1.52,-2.84 -2.6,-4.02zm76.09 -25.57c3.2,-0.23 11.68,-1.21 13.08,-1.03 8.19,1.03 6.58,1.05 12.42,3.54 -37.05,9.37 -15.17,6.17 -25.5,-2.51zm202.02 -106.96c0.14,-0.81 2.42,-1.11 2.53,-0.28l3.52 -0.12c0,0 0.45,0.18 0.45,0.18 -0.08,0.06 -9.43,17.33 -6.5,0.22zm-424.37 -107.67c8.38,-9.74 -4.78,5.56 0,0zm317.63 -342.13c3.14,10.69 -3.41,18.16 15.16,9.72 -18.5,18.68 -41.74,40.25 -63.54,53.66 11.43,-11.09 18.87,-11.54 32.07,-26.46 13.41,-15.15 5.43,-15.14 16.31,-36.91zm18.85 42.5c10.06,-5.57 -4.17,2.3 0,0zm139.23 -191.59c16.93,10.99 8.5,0.41 -12,16.33 -14.04,10.91 -3.79,12.7 -27.14,20.09l-6.86 1.55c-0.9,0.26 -2.65,0.6 -3.55,0.91 -39.11,13.54 1.25,15.99 -52.89,38.89 -24.04,10.18 -17.54,15.49 -47.49,24.85 32.11,-41.5 49.26,-33.2 80.31,-56.96l12.97 -9.81c19.49,-10.54 7.23,5.18 38.14,-20.05 11.99,-9.78 8.6,-3.93 18.51,-15.81zm-66.87 88.59c10.44,-5.49 27.35,-19.08 36.58,-31.69l-36.58 31.69zm-3.31 -25.59l12.85 -10.16c6.05,-4.68 11.83,-8.9 15.96,-12.54 -11.63,10.04 -18.35,14.72 -28.81,22.7zm207.58 -85.36c4.64,4.81 7.24,3.19 -8.21,14.65l-10.63 6.62c0.88,-1.02 2.36,-3.88 2.75,-2.98l16.09 -18.29zm-127.75 18.1c-0.19,-2.37 20.29,-8.23 36.53,-24.94l8.1 6.48c-13.41,7.06 -29.22,20.08 -44.63,18.45zm185.37 -72.84c-19.92,-8 -49.15,10.99 -70.29,24.68 -20.83,13.5 -11.94,12.75 -30,23.02l-35.25 17.15c15.04,-20.11 111.86,-81.57 135.54,-64.85zm42.1 9.02c6.15,-5.86 20,5.18 6.41,1.89 -0.14,-0.04 -14.24,5.57 -6.41,-1.89zm-58.74 -7.2c2.67,-1.16 21.97,5.96 6.17,1.82 -0.13,-0.04 -11.45,0.46 -6.17,-1.82zm-1039.33 1955.52l6.97 -25.9c34.83,95.3 48.99,143.94 136.37,158.81 13.29,-14.53 8.83,-18.1 20.3,-30.63 53.2,52.26 81.74,11.26 129.79,63.54 13.24,14.41 17.04,33.07 35.79,39.45 17.52,5.96 47.2,31.9 84.48,30.63 4.92,-15.15 -1.56,-28.48 -9.98,-45.04 24.78,0.81 41.5,43.16 53.69,62.8 77.78,125.27 40.11,53.82 57.47,163.57 2.12,13.44 5.33,35.69 10.77,46.79 15.24,31.07 13.67,13.17 34.28,16.77 23.29,79.72 18.63,73.72 79.45,114.19 13.96,9.3 22.73,18.27 35.61,28.65 15.28,12.31 19.8,18.28 33.54,30.59 18.89,16.91 20.69,10.64 41.24,23.24 30.25,18.58 34.49,42.21 71.97,62.25 27.11,14.49 65.87,20.33 96.5,32.94 61.2,25.2 84.23,88.26 121.2,135.26 93.9,119.39 241.11,258.83 380.78,337.38 12.81,7.2 24.4,15.95 38.96,25.26 86.95,55.56 169.64,102.82 272.69,126.76 -12,-9.14 -80.54,-32.09 -157.77,-88.96 -18.37,-13.53 -21.82,-8.32 -40.03,-18.43l-48.35 -45.36c-10.77,-11.67 -5.76,-11.81 -14.06,-20.51 -16.6,-17.42 -12.41,6.44 -33.76,-20.51 -0.05,-0.75 0.81,-2.67 0.85,-2.1 0.02,0.22 10.41,-20.98 -28.22,-38.93 15.18,-35.7 -20.67,31.3 8.33,-10.46 3.53,-5.08 19.14,-13.8 -2.73,-46.59 -11.63,-17.43 -35.48,-34.09 -49.56,-44.15 2,-0.38 15.62,-1.37 15.78,-1.41 1.45,-0.36 3.22,-0.8 4.73,-1.25 1.62,-0.5 3.43,-1.24 4.94,-1.77l10.19 -4.59c-1.05,-31.24 -12.4,-44.56 -11.92,-67.25 0.54,-25.04 -0.34,-41.57 -5.09,-69.26 -8.38,-48.76 -60.2,-69.1 -27.24,-117.07 11.34,-16.5 22.14,-32.74 39.72,-41.98 29.81,-15.62 35.02,-1.92 35.88,-50 1.02,-56.02 -2.48,-95.55 -27.4,-139.1 -8.59,-15.04 -21.65,-39.52 -14.01,-58.31 4.87,-11.98 12.97,-10.72 23.72,-45.85 17.52,-57.17 54.13,-143.6 -26.23,-173.72 -75.37,-28.22 -60.24,-36.44 -138.09,-30.41 -35.44,2.75 -47.65,-11.25 -62.24,17.94 -27.87,-49.55 -21.11,-35.25 -89.04,-46.58 -58.56,-9.77 -63.61,-14.59 -78.29,46.93 -7.01,-11.17 -3.92,-26.61 0.63,-41.9l3.72 -50.92 -31.61 -28.57c-14.53,-28.22 -1.76,-21.62 -31.39,-38.76 -51.84,-30 -56.77,-17.64 -109.14,-12.04 -63.43,6.77 -50.65,-28.28 -86.96,-44.38l-75.29 -29.65c-25.46,-10.3 6,-5.59 -25.28,-9.46 -27.33,24.66 -13.86,22.36 -61.5,32.15 -29.02,5.95 -13.46,1.41 -35.3,-7.36 -1.71,-0.69 -7.35,-2.25 -9.09,-2.98 -20.54,-8.7 -4.87,9.23 -18.58,-12.06 -23.9,36.69 -19.77,21.77 -9.39,68.4 6.35,28.55 4.59,12.42 -3.89,21.63 -19.84,-20.42 -15.87,-57.17 -18.46,-78.5 -1.35,-11.01 -0.01,-7.25 -3.32,-13.34l-44.38 63.2c-8.08,15.81 -6.26,69.33 -5.1,93.81l-43.48 -29.41c-10.71,12.17 -16.78,21.34 -21.17,37.69 -87.15,3.57 -69.44,-103.94 -104.52,-159.18 -55.22,1.52 -24.54,7 -59.09,23.41 -21.03,-25.31 -26.24,-138.14 -29.91,-178.27 -57.06,23.58 -24.35,78.8 -29.57,128.2 -0.73,0.5 -2.18,0.15 -2.4,1.14 -4.3,19.02 1.23,-4.38 -12.24,8.2 -8.13,7.6 -7.06,9.72 -14.54,17.13 -60.53,-26.49 -75.3,-139.52 -80.71,-199.87 -3.24,-36.13 -15.77,-177.26 47.48,-174.28 7.7,0.37 7.62,4.56 16.11,-2.85 13.57,-11.81 4.56,-5.26 9.94,-12.5 -10.72,-17.81 -8.09,-9.24 -13.11,-31.67 8.99,-3.4 40.23,-20.31 45.45,-20.89 16.47,-1.78 -1.14,9.41 38.76,-10.11 16.62,33.65 29.6,121.99 60.2,139.74 31.09,-119.57 -59.56,-154.2 -7.47,-257.2 23.95,-47.37 62.04,-76.04 73.07,-122.66l2.94 -13.75c0.13,-1.01 0.2,-2.78 0.33,-3.81 2.44,-21.2 6.35,-34.68 0.76,-59.96 0.88,-0.66 2.64,-2.45 2.93,-1.57 4.88,14.43 19.96,-43.66 20.33,-45.36 8.7,-40.31 -0.89,-7.85 12.66,-29.17 21.03,-33.09 15.5,-49.24 50.07,-71.83 98.99,-64.71 6.14,-63.77 87.93,-144.68 23.29,-23.05 63.55,-56.03 105.51,-66.07 -18.54,30.6 -47.81,23.89 -40.28,69.15 38.55,-12.65 71.19,-51.8 96.42,-79.23l-52.61 -20.46c-0.11,-30.11 10.43,-36.76 18.22,-58.9 5.93,-16.8 9.69,-2.94 5.19,-27.97 -48.27,5.93 -62.68,36.35 -92.7,49.36 12.97,-30.85 32.65,-32.81 49.69,-61.03 21.25,-35.18 33.15,-24.31 82.14,-35.54 83.56,-19.15 102.42,-38.39 156.81,-75.76 -27.96,16.67 -32.09,33.33 -48.61,66.71 -15.79,31.91 -36.7,47.35 -46.52,71.39 64.94,-12.24 56.43,-21.31 75.91,-11.52l-9.36 22.84c1.67,-0.02 23.83,-27.66 34.3,-34.37 0.07,30.56 -6.2,21.61 15.15,34.23 2.78,-5.98 10.32,-24.72 10.89,-30.68 0.3,-3.17 2.44,-6.62 -7.87,-12.61l16.24 -26.91c-18.7,-2.4 -0.26,11.85 -19.45,1.39l15.83 -23.04 -41.16 7.93c-0.57,-1.02 -1.28,-4.33 -1.48,-3.48l-2.96 -6.85c-9.8,-24.61 6.11,-26.21 13.85,-48.8 10.39,-30.26 39.74,-61.69 7.78,-102.9l-46.7 -50.09c23.28,-13.36 16.21,-13.7 22.17,-34.07l19.92 -97.01c-30.91,29.45 -56.24,69.67 -105.27,91.47 -0.27,-42.16 9.05,-56.34 33.63,-77.8l-5.56 -12.24c-3.84,-11.1 0.24,-24.08 -6.27,-39.08 -42,15.84 -55.97,-3.48 -76.83,38.67 -12.58,25.42 -19.61,22.41 -33.04,48.44 -12.54,24.31 -39.74,50.45 -63.33,59.3 7.25,78.91 -53.68,111.07 -90.34,148.15 -30.22,30.56 -35.19,83.72 -60.22,119.03 -10.53,14.86 0,1.44 -8.62,5.37 -2.8,1.28 -0.22,-1.3 -8.01,4.09l-11.57 9.65c3.32,-44.4 -5.7,-27.44 14.24,-72.29 10.28,-23.11 20.56,-42.61 31.18,-63.12 -18,1.81 -28.86,11.05 -38.28,-2.3l-2.36 -6.55c-8.24,-32.01 14.03,-21.53 -22.88,-34.74 38.76,-67.74 44.9,-79.07 91.57,-135.29 53.16,-64.04 116.09,-73.1 109.37,-126.15 33.26,9.44 23.94,1.01 56.86,-11l15.12 18.54c26.13,-37.98 32.4,-15.18 58.01,-28.09 11.4,-16.39 11.42,-49.86 24.94,-67.7 12.87,-16.99 48.8,-21.01 70.47,-35.01 59.57,-38.48 67.22,-50.7 112.19,-92.5 -25.26,-4.17 -56.48,36.49 -90.7,49.55 4.99,-7.5 14.3,-20.87 21.51,-30.37 8.74,-11.52 17.77,-17.41 31.91,-26.88 25.76,-17.28 14.93,-12.45 39.2,-6.69 27.61,6.55 18.78,-0.56 42.38,2.54 13.72,32.46 -3.36,6.71 -5.51,27.25 -2.31,21.93 -22.04,40.3 -47.3,52.31 23.24,10.29 5.62,-4.57 28.07,2.89 -7.43,11.85 1.25,11.98 -18.61,14.58 -37.99,4.98 17.35,-4.5 -21.02,-4.26 -24.41,0.15 -32.44,18.08 -43.11,30.3 -18.69,21.43 -26.12,14.1 -50.39,20.52 -16.47,4.37 -31.35,17.85 -39.38,37.91 19.74,-6.38 29.83,-16.2 53.93,-16.57 -1.88,26.16 -8.83,22.57 -10.9,45.73 13.43,7.22 24.97,18.32 38.61,19.83 6.47,-12.89 6.02,-34.26 10.32,-53.33 12.84,10.8 15.37,10.15 21.09,30.64 15.56,-10.2 24.04,-27.39 34.7,-39.65 19.8,-22.78 11.36,-32.33 18.11,-60.11 10.2,-17.96 -1.02,-1.14 6.28,-5.65 7.89,-4.88 -4.81,2.6 5.91,-2.68 22,-10.82 -2.98,-6.92 25.48,-11.49 -5.43,32 -16.61,13.37 -3.72,39.27 16.69,-27.59 52.78,-38.67 76.1,-59.06l-18.49 -49.35c17.89,-12 34.13,-14.48 46.9,-29.72l40.15 -70.57c0.57,-0.93 1.81,-2.76 2.72,-4.14 -21.22,4.48 -18.27,8.47 -31.41,3.22 29.28,-10.23 42.75,-8.13 71.68,-23.39l-9.44 -4.46c-1.13,-0.32 -3.35,-1.28 -4.73,-1.6 -78.77,-18.74 -214.05,66.63 -270.51,97.76 -10.25,5.66 -18.35,10.16 -30.07,16.69 -69.27,38.63 -153.1,100.57 -219.35,148.97 -98.33,71.83 -231.45,210.67 -304.5,308.34 -227.81,304.56 -374.33,659.16 -373.97,1058.51 0.07,79.41 -3.64,207.27 22.97,283.08 10.14,28.89 19.78,47.96 25.41,82.09z"/>
   <path class="fil2" d="M4071.74 3969.98c4.91,-9.14 4.39,6.09 1.72,2.41 -0.1,-0.13 -6.69,6.85 -1.72,-2.41zm212.93 -150.53c-1.61,-9.5 17.83,3.48 9.46,2.74 -9.41,-0.83 -7.32,9.89 -9.46,-2.74zm-225.11 -90.95l16.8 -0.71 -16.8 0.71zm0 0c-8.89,17.37 -6.41,-15.58 3.27,3.76 2.15,4.28 22.51,-13.13 -16.56,18.38 28.37,-0.16 29.46,-8.48 41.75,2.17 -11.1,10.98 -41.72,26.88 -56.39,39.57l-46.27 41.56c-9.12,6.55 -0.56,1.86 -11.46,7.11l7.4 1.13c0.54,0.04 2.78,0.26 3.41,0.29 0.57,0.04 2.53,0.06 3.13,0.09 2.42,0.09 4.61,-2.46 9.31,-0.07 -6.15,6.44 -4.99,7.43 -8.09,13.26 -1.33,2.5 -2.51,9.31 -7.43,13.74 -17.91,16.13 5.82,-0.52 -37.31,0.38 8.43,19.15 25.67,30.1 -3.19,46.91 -21.06,12.28 -35.09,9.59 -54.87,27.55 -32.29,29.34 -40.27,42.49 -55.52,78.33 -11.36,26.69 7.56,-15.77 -3.32,7.36 -0.38,0.81 -1.43,2.68 -1.76,3.33 -0.31,0.63 -1.04,2.25 -1.76,3.26l16.63 5.76c-40.17,18.61 -23.56,29.6 -26.88,70.17 -2.77,33.89 -8.48,42.33 39.06,26.51 9.1,16.83 -9.57,-1.26 5.91,23.97 43.41,-1.53 26.41,-3.72 45.67,-28.31 16.62,-21.23 26.02,-16.25 33.91,-40.04 9.12,-27.57 -4.46,-3.87 30.95,-34.84 31.75,-27.77 14.08,-19.27 29.83,-40.28 17.53,-23.38 14.15,-6.39 48.67,-27.4 6.65,-4.05 15.8,-11.08 20.09,-12.88 8.48,-3.56 10.94,-1.17 25.59,-5.78 34.2,-10.77 83.49,-36.36 90.3,-69.4 16.82,11.1 12.53,9 40.65,1.63 88.37,-23.17 85.31,-38.6 109.33,-48.13l-73.59 -2.98c28.76,-26.78 17.6,-6.64 41.8,-7.97 19.44,-30.46 -14.97,9.2 5.91,-21.1 8.7,4.52 19.93,24.42 47.82,11.18 2.35,-15.5 1.04,-15.34 -9.37,-25.39 -1.22,-1.18 -5.6,-4.37 -6.88,-5.67 -11.22,-11.39 -6.06,1.67 -11.42,-15.04 23.62,-33.7 16.47,3.63 56.67,-15.84 2.45,-10.37 4.09,3.99 -2.02,-6.47 -3.62,-6.21 -4.23,-3.26 -4.63,-5.06 3.87,-2.8 20.95,-7.3 27.33,-17.54l4.25 -11.68c5.13,-12.13 -4.48,-2.17 10.39,-13.61 30.35,-23.37 -2.67,16.54 11.1,-8.54 0.17,-0.31 -3.9,-16.92 34.85,-27.89 -71.42,-8.78 -311.93,17.5 -350.54,34.06 -30.95,13.27 -1.3,2.69 -55.76,10.43z"/>
   <path class="fil3" d="M4581.8 4257c11.87,14.52 11.16,13.67 15.04,31.98 6.04,28.54 -1.58,10.62 23.38,18.81l-7.46 29.06 37.95 -4.83c-0.98,29.54 6.98,12.96 12.36,44.15l-30.3 12.24c-4.27,11.67 -5.04,-3.18 -0.3,8.39l-10.58 32.01c1.02,0.45 12.52,5.12 12.95,5.26 10.73,3.57 14.81,3.96 23.8,5.89 -1.41,1.03 -3.75,0.44 -4.58,2.57 -0.8,2.1 -3.41,1.93 -4.53,2.48l-8.96 4.29c-22.72,10.56 -31.54,12.18 -44.34,34.22l54.92 -12.34c26.1,-8.83 -19.47,-2.55 23.01,-7.49 33.26,-3.87 55.3,3.8 87.54,-5.72 -13.52,-21.78 -22.64,-0.63 -7.64,-19.01 13.35,-16.34 18.73,2.52 17.97,-30.35 -25.05,-21.65 -22.64,11.38 -44.11,-38.87 -0.53,-1.23 -1.5,-4.52 -2.13,-5.64 -9.56,-17.22 -14.4,-7.34 -33.98,-37.62 -9.53,-14.73 -14.2,-20.08 -33.18,-26.28 19.78,-11.37 23.19,-22.9 18.46,-45.39 -50.95,-1.4 -34.75,-0.09 -46.16,-12.93 25.7,-4.31 16.22,1.97 28.45,-13.34 -12.75,-8.92 -20.59,-6.34 -38.43,-6.48 -13.56,16.94 -5.76,19.34 -23.83,29.37 -4.49,2.48 -4.31,-0.79 -15.33,5.56z"/>
   <path class="fil4" d="M4352.45 3949.06c-9.53,23.78 1.72,11.54 -15.15,23.44 -23.79,-19.79 10.92,-5.15 -17.73,-25.76 -19.17,6.93 -17.42,13.93 -33.62,25.43 1.31,-0.26 11.05,-2.22 11.7,-2.19l18.41 5.04 -30.11 12.24 23.65 14.13 -7.02 14.3c30.54,2.97 64.76,9.35 91.04,-2.76 26.22,-12.08 56.32,-21.76 67.42,-43.68 -6.96,-12.26 -22.48,-35.11 -41.59,-32.5 -18.75,2.57 -41.58,20.39 -67,12.31z"/>
   <path class="fil5" d="M4532.31 4345.23l-29.31 1.93c-12.25,52.3 23.37,19.54 -17.22,63.97 27.7,56.06 44.63,7.98 98.98,2.88l13.67 -75.98c-15.25,-12.48 -40.24,-26.81 -57.56,-11.2 -10.67,9.61 -3.01,7.26 -8.55,18.4z"/>
   <path class="fil6" d="M2902.76 5664.41c27.1,-11.48 10.63,-24.84 29.74,-34.32l11.39 -1.56c75.73,-6.34 85.54,48.99 87.05,51.02 21.74,-21.04 31.6,-7.34 48.92,-33.51 -13.24,-24.58 -41.5,-21.9 -102.76,-40.03 -45.89,-13.58 -71.61,13.73 -74.34,58.39z"/>
   <path class="fil7" d="M3097.79 5646.77c12.08,11.76 12.18,9.27 18.81,28.09 -1.35,0.93 -3.63,0.3 -4.36,2.33 -3.53,9.81 2.99,-2.95 -20.69,12.25 -0.93,0.61 -2.73,1.67 -3.92,2.7 5.7,2.37 3.64,3.02 13.43,2.69 23.85,-0.81 21.67,-13.35 40.69,1.3 13.52,-46.64 15.11,-30.33 59.09,-46.09 -28.79,-47.75 -59.21,-16.79 -103.06,-3.26z"/>
   <path class="fil8" d="M3831.19 3800.11c105.79,0.37 100.98,-34.02 131.09,-41.59 7.94,-2 18.88,-0.24 31.56,-2.22 26.6,-4.15 37.66,-11.27 52.63,-24.12 -47.81,6.96 -166.5,35.95 -215.28,67.93z"/>
   <path class="fil9" d="M4674.55 3702.12c22.37,24.38 42.81,16.69 55.54,24.12 0.84,0.48 2.61,2.41 3.58,3.09l36.39 20.4c1.19,0.51 2.76,1.17 3.91,1.64l8.4 3.17c0.96,0.37 2.97,1.03 4.46,1.52 -11.5,-16.67 -6.61,-15.61 -21.95,-25.93 16.26,-13.46 7.78,-8.31 -8.85,-3.71 2.11,-21.98 4.72,-5.81 0.4,-21.41 -43.41,-10.63 -43.28,-5.88 -81.89,-2.89z"/>
   <path class="fil10" d="M4992.14 4847.26l25.65 -6.27c12.5,-123.06 -60.74,-42.46 -25.65,6.27z"/>
   <polygon class="fil11" points="5174.9,4939.95 5175.2,4892.63 5152.83,4890.92 5129.17,4891.2 5105.54,4891.78 "/>
   <path class="fil12" d="M5651.07 5027.68l-40.22 -2.71c-2.56,16.06 -0.89,30.59 18.7,25.49 10.15,-2.65 18.98,-20.81 21.51,-22.78z"/>
   <path class="fil13" d="M3022.44 5726.72c0.28,0.15 -3.35,8.47 20.82,7.15 25.21,-1.38 13.85,-4.62 18.15,-12.9 -43.67,-27.8 -38.96,5.74 -38.97,5.76z"/>
   <path class="fil14" d="M4993.25 4763.36c16.59,-8.65 17.43,-25.28 14.78,-41.42 -29.11,7.89 -27.94,18.48 -14.78,41.42z"/>
   <path class="fil15" d="M3363.15 4688.55c15.37,4.06 11.42,7.65 29.72,-12.33l-10.72 -18.7c-0.65,-1.04 -1.86,-2.96 -2.94,-4.34l-16.07 35.38z"/>
   <path class="fil16" d="M3354.11 4679.09l-41.23 -4.55c2.83,10.17 -0.04,17.8 20.85,18.89 16.11,0.84 14.75,-5.3 20.37,-14.34z"/>
   <path class="fil17" d="M3349.67 4582.55c13.77,5.03 -6.78,4.77 13.15,3.82 25.48,-1.2 11.02,-1.64 17.7,-6.33 -25.31,-27.28 -24.85,-1.33 -30.85,2.51z"/>
   <path class="fil18" d="M3914.43 3908.76c12.74,-2.01 6.67,1.72 19.19,-3.68 14.76,-6.37 9.89,-7.11 13.12,-10.72 -14.76,-9 -27.83,-4.57 -32.31,14.41z"/>
   <path class="fil19" d="M4569.61 4240.44c21.72,7.43 27.45,7.65 25.87,-15.87 -22.38,4.67 -17.43,0.62 -25.87,15.87z"/>
   <path class="fil20" d="M3220.41 5653.45c26.04,-2.29 21.99,1.07 33.15,-13.17 -15.79,-6 -30.65,-4.14 -33.15,13.17z"/>
   <path class="fil21" d="M5135.09 4300.81c9.61,-15.52 5.86,-16.69 -2.09,-29.06 -6.44,11.49 -9.31,15.43 2.09,29.06z"/>
   <path class="fil22" d="M4123.58 644.33c39.62,309.9 -65.76,619.8 -286.06,929.7 -229.07,345.43 -731.04,667.48 -1096.57,1001.22 -355,308.22 -564.83,969.64 -314.9,1503.74 651.77,-734.65 1699.52,-1378.75 1816.73,-2409.61 -31.13,481.65 -254.6,910.83 -584.04,1311.12 -374.4,413.29 -826.76,813.02 -1123.2,1239.87 -431.4,632.7 -511.26,1296.7 -319.03,2002.17 -259.01,-637.04 -326.02,-1289.57 59.59,-1978.59 -142.81,-306.22 -148.85,-650.16 -93.41,-1011.07 -745.38,942.93 -902.07,1939.19 -216.48,2977.75 582.28,797.82 1337.9,1017.88 2157.38,1025.06 -1384.81,-216.98 -2348.01,-1355.29 -1454.99,-2803.54 375.73,-477.67 944.2,-800.11 1355.41,-1194.43 855.97,-820.78 677.65,-1923.11 99.58,-2593.38z"/>
  </g>
 </g>
</svg>
